<?xml version="1.0" standalone="no"?>
<!DOCTYPE svg PUBLIC "-//W3C//DTD SVG 20010904//EN"
 "http://www.w3.org/TR/2001/REC-SVG-20010904/DTD/svg10.dtd">
<svg version="1.0" xmlns="http://www.w3.org/2000/svg"
 width="2048.000000pt" height="2048.000000pt" viewBox="0 0 2048.000000 2048.000000"
 preserveAspectRatio="xMidYMid meet">

<g transform="translate(0.000000,2048.000000) scale(0.100000,-0.100000)"
fill="white" stroke="none">
<path d="M9755 20470 c-1586 -82 -2971 -506 -3835 -1176 -146 -113 -375 -341
-466 -464 -186 -250 -291 -495 -324 -752 -6 -52 -10 -476 -10 -1145 l0 -1063
2560 0 2560 0 0 -255 0 -255 -3878 0 c-2600 0 -3905 -3 -3960 -10 -350 -44
-672 -219 -987 -534 -495 -497 -882 -1264 -1135 -2251 -496 -1930 -321 -4302
434 -5870 417 -865 949 -1393 1554 -1543 l107 -26 1116 -3 1116 -4 6 438 c28
1895 260 3039 762 3758 469 672 1172 1006 2350 1119 481 46 824 55 2235 61
1555 7 2016 18 2510 60 1114 96 1754 354 2155 870 381 490 593 1243 684 2430
43 562 46 704 46 2510 l0 1730 -27 112 c-111 466 -442 881 -993 1248 -837 557
-2023 903 -3440 1005 -200 15 -927 21 -1140 10z m-2105 -1631 c196 -48 382
-165 505 -318 393 -488 228 -1200 -338 -1461 -259 -119 -546 -115 -802 9 -255
125 -427 331 -507 607 -20 68 -23 102 -23 244 0 184 14 255 79 395 136 294
415 499 741 545 88 13 248 3 345 -21z"/>
<path d="M15867 14928 c-28 -1824 -244 -2926 -715 -3643 -516 -786 -1301
-1140 -2767 -1250 -505 -37 -1339 -54 -2780 -55 -753 0 -1153 -8 -1510 -30
-908 -56 -1490 -212 -1893 -508 -578 -423 -890 -1225 -1017 -2612 -56 -616
-67 -1128 -63 -2935 l4 -1520 26 -107 c80 -322 261 -617 544 -888 917 -876
2747 -1412 4704 -1377 352 7 646 24 944 57 1320 146 2473 548 3205 1118 421
328 680 691 779 1090 l26 107 3 1118 4 1117 -2561 0 -2560 0 0 255 0 255 3933
3 3932 2 107 27 c323 81 617 261 888 544 1058 1107 1592 3495 1300 5814 -209
1660 -845 3033 -1658 3578 -180 121 -337 192 -532 240 l-105 26 -1116 3 -1116
4 -6 -433z m-2587 -11449 c103 -24 263 -99 347 -163 126 -96 242 -245 303
-393 93 -222 93 -504 0 -726 -160 -384 -563 -623 -972 -578 -618 69 -1001 688
-788 1272 117 321 417 561 760 609 92 12 250 3 350 -21z"/>
</g>
</svg>
